<svg width="767" height="629" viewBox="0 0 767 629" fill="none" xmlns="http://www.w3.org/2000/svg">
<rect width="767" height="628.858" rx="12" fill="#F5F5F5" fill-opacity="0.8"/>
<path d="M130.497 330.343C130.497 330.343 177.669 258.825 270.92 194.88C364.172 130.936 652.405 137.072 706.289 115.84C760.174 94.6084 637.016 235.02 565.844 281.713C494.672 328.4 130.497 330.343 130.497 330.343Z" fill="#E4F5F9"/>
<path d="M187.518 232.013C187.518 232.013 321.837 34.3217 476.858 57.5696C476.858 57.5696 275.86 256.859 187.518 232.013Z" fill="#E4F5F9"/>
<path d="M127.456 482.022C127.456 482.022 3.47052 491.457 56.3655 503.136C109.261 514.808 156.982 519.815 127.456 526.252C97.9311 532.689 121.279 541.986 190.464 544.134C259.65 546.282 319.727 547.711 299.508 555.578C279.297 563.445 274.028 569.882 335.981 572.03C397.933 574.178 463.455 574.178 435.989 562.734C408.515 551.289 493.684 554.148 516.841 554.148C540.005 554.148 667.714 553.43 623.129 536.978C601.54 529.009 644.359 514.551 685.001 514.002C741.927 513.232 765.575 495.695 716.073 488.569C620.11 474.756 127.456 482.022 127.456 482.022Z" fill="#EFDAB6"/>
<path d="M652.596 487.381C652.596 487.381 663.618 441.377 694.492 431.86C694.492 431.86 669.949 471.083 661.734 483.54C661.734 483.54 686.768 454.419 694.492 446.105C702.208 437.791 736.05 432.835 745.547 435.313C745.547 435.313 714.08 462.3 677.278 479.441C677.278 479.441 709.932 470.226 722.104 475.541C722.104 475.541 697.467 486.318 677.278 487.887L652.596 487.381Z" fill="#EFDAB6"/>
<path d="M73.9455 488.642L56.0794 482.036L42.6028 488.642C42.6028 488.642 50.4366 474.932 54.5111 474.631C58.5856 474.331 75.4478 483.04 75.4478 483.04C75.4478 483.04 51.6018 463.876 20.6182 463.612C20.6182 463.612 36.8575 458.385 48.033 459.69C59.2085 460.995 81.1931 479.602 83.0399 483.04C83.0399 483.04 51.0595 443.737 48.2382 435.899C48.2382 435.899 75.0521 446.398 89.8478 472.784L81.9626 440.078C81.9626 440.078 99.5869 459.902 107.443 486.596L73.9455 488.642Z" fill="#EFDAB6"/>
<path d="M140.5 487.065C140.5 487.065 64.785 504.287 150.041 506.853C235.298 509.419 326.329 511.303 326.329 511.303C326.329 511.303 309.086 522.777 349.127 524.389C389.168 525.995 442.195 524.727 421.581 506.853C421.581 506.853 617.171 507.813 626.163 506.706C635.154 505.606 719.077 504.881 642.058 489.419C565.023 473.964 140.5 487.065 140.5 487.065Z" fill="#CCAA75"/>
<path d="M139.68 327.622C139.68 327.622 153.193 324.492 175.933 325.724C198.672 326.948 230.11 327.3 239.49 327.828C248.878 328.356 289.227 329.294 296.738 330.232C296.738 330.232 346.006 341.164 344.599 412.212C343.192 483.261 311.285 495.072 300.49 496.912C300.49 496.912 271.786 498.356 265.725 496.912C259.665 495.468 232.888 500.937 208.521 499.222C184.155 497.513 149.866 499.559 135.877 496.912C132.271 496.23 139.68 327.622 139.68 327.622Z" fill="#E5CE9E"/>
<path d="M324.498 452.19C324.065 449.375 328.682 423.085 324.498 430.599C320.313 438.107 304.286 455.321 301.033 455.321C297.779 455.321 293.646 446.245 288.582 446.245C283.518 446.245 280.506 460.952 277.568 463.774C274.622 466.589 252.982 469.097 254.858 465.966C256.734 462.836 266.744 431.23 264.553 434.984C262.362 438.737 242.033 466.905 239.754 467.535C237.482 468.158 220.129 469.412 223.258 460.02C226.388 450.629 227.326 435.607 223.258 445.314C219.191 455.013 206.367 464.72 203.553 464.405C200.739 464.089 180.403 464.405 180.718 457.52C181.033 450.636 175.361 417.997 175.361 417.997L136.368 413.84C134.997 455.468 134.103 496.589 135.884 496.927C149.881 499.573 184.17 497.528 208.529 499.236C232.888 500.944 259.672 495.482 265.733 496.927C271.793 498.371 300.498 496.927 300.498 496.927C310.449 495.226 338.348 485.057 343.742 427.799C340.334 442.806 324.93 455.006 324.498 452.19Z" fill="#D8BE8F"/>
<path d="M135.884 496.912C135.884 496.912 101.258 491.81 97.8799 421.685C94.5016 351.56 137.152 325.636 139.68 327.615C142.216 329.595 177.076 347.337 175.478 414.082C173.881 480.827 155.304 494.83 135.884 496.912Z" fill="#CCAA75"/>
<path d="M277.567 325.13L278.718 323.869L284.192 329.118L292.488 330.284V332.528L283.327 330.937L277.567 325.13Z" fill="#E5CE9E"/>
<path d="M285.065 321.018L286.721 320.035L292.107 332.491L290.634 333.268L285.065 321.018Z" fill="#E5CE9E"/>
<path d="M89.5696 393.981L90.9106 393.431L93.1824 399.457L99.1109 403.372L98.2901 405.095L91.8486 400.542L89.5696 393.981Z" fill="#CCAA75"/>
<path d="M90.2587 408.656L89.5771 407.168L100.606 403.729L101.126 405.049L90.2587 408.656Z" fill="#CCAA75"/>
<path d="M94.5378 393.246L95.9449 392.418L100.532 403.019L99.2792 403.679L94.5378 393.246Z" fill="#CCAA75"/>
<path d="M316.231 321.458L314.465 320.739L311.482 328.657L303.692 333.797L304.769 336.069L313.226 330.079L316.231 321.458Z" fill="#E5CE9E"/>
<path d="M315.322 340.746L316.216 338.789L301.721 334.272L301.039 336.003L315.322 340.746Z" fill="#E5CE9E"/>
<path d="M309.701 320.497L307.847 319.404L301.823 333.341L303.465 334.206L309.701 320.497Z" fill="#E5CE9E"/>
<path d="M339.696 487.969L337.93 488.694L334.94 480.776L327.15 475.637L328.227 473.364L336.691 479.347L339.696 487.969Z" fill="#D8BE8F"/>
<path d="M338.787 468.687L339.681 470.644L325.186 475.153L324.497 473.43L338.787 468.687Z" fill="#D8BE8F"/>
<path d="M333.158 488.929L331.312 490.028L325.281 476.091L326.93 475.219L333.158 488.929Z" fill="#D8BE8F"/>
<path d="M108.336 495.152L109.839 495.775L112.389 489.009L119.043 484.617L118.127 482.682L110.901 487.792L108.336 495.152Z" fill="#CCAA75"/>
<path d="M109.106 478.687L108.344 480.358L120.721 484.214L121.308 482.733L109.106 478.687Z" fill="#CCAA75"/>
<path d="M113.913 495.974L115.488 496.912L120.64 485.013L119.233 484.266L113.913 495.974Z" fill="#CCAA75"/>
<path d="M127.567 323.833L128.542 322.755L133.1 327.227L140.061 328.224V330.138L132.367 328.781L127.567 323.833Z" fill="#CCAA75"/>
<path d="M135.203 322.836L136.61 322L141.198 332.609L139.952 333.268L135.203 322.836Z" fill="#CCAA75"/>
<path d="M110.177 344.742L111.584 343.906L116.171 354.515L114.925 355.175L110.177 344.742Z" fill="#CCAA75"/>
<path d="M98.6568 350.373L106.982 347.976L115.548 353.298L114.508 355.175L105.538 350.791L96.7808 353.298L98.6568 350.373Z" fill="#CCAA75"/>
<path d="M129.728 344.353C129.728 344.353 115.079 362.82 112.551 374.712C110.022 386.604 104.394 424.162 106.27 432.923C108.146 441.684 129.105 501.773 138.024 490.196C146.942 478.62 162.265 460.468 162.58 432.923C162.896 405.387 160.389 377.219 156.637 369.081C152.885 360.944 139.013 354.998 139.013 354.998C139.013 354.998 123.477 363.136 123.477 397.872C123.477 432.608 135.107 458.671 136.016 457.374C136.924 456.083 149.441 438.239 147.565 416.017C145.689 393.796 143.183 379.514 138.024 376.274C132.864 373.033 133.15 387.131 133.15 387.131L136.016 381.699C136.016 381.699 143.915 397.557 143.915 412.366C143.915 427.183 137.342 450.783 136.016 444.184C134.689 437.586 117.219 377.315 137.87 359.375C137.87 359.375 151.845 371.061 153.303 377.733C154.761 384.411 158.931 434.69 157.473 439.91C156.014 445.13 135.994 492.491 134.425 487.066C132.864 481.641 110.235 437.41 109.553 428.437C108.872 419.463 117.82 362.615 131.699 348.788C131.699 348.788 143.915 347.065 147.667 349.778C147.667 349.778 145.161 343.729 129.728 344.353Z" fill="#C19963"/>
<path d="M341.586 420.424L361.372 404.207V406.81L341.586 422.352V420.424Z" fill="#E5CE9E"/>
<path d="M339.388 418.576H359.174V421.208L339.388 419.566V418.576Z" fill="#E5CE9E"/>
<path d="M189.288 337.227L187.184 337.837L193.753 360.512L195.858 359.901L189.288 337.227Z" fill="#EFDAB6"/>
<path d="M199.419 357.725H197.22V347.769L201.398 337.109L203.427 337.908L199.419 348.18V357.725Z" fill="#EFDAB6"/>
<path d="M243.053 352.754L241.647 354.436L262.61 371.963L264.015 370.281L243.053 352.754Z" fill="#EFDAB6"/>
<path d="M260.241 348.481L258.174 349.208L263.805 365.24L265.872 364.514L260.241 348.481Z" fill="#EFDAB6"/>
<path d="M306.733 404.185L304.791 403.18L308.91 395.182L311.658 380.629L313.805 381.039L311.006 395.908L306.733 404.185Z" fill="#EFDAB6"/>
<path d="M331.442 383.393L312.084 398.379L313.425 400.113L332.783 385.127L331.442 383.393Z" fill="#EFDAB6"/>
<path d="M226.534 403.914H224.336V395.857L217.55 384.903L219.455 383.76L226.534 395.233V403.914Z" fill="#EFDAB6"/>
<path d="M234.78 386.342L229.46 398.825L231.476 399.685L236.796 387.201L234.78 386.342Z" fill="#EFDAB6"/>
<path d="M269.015 418.481L266.978 417.675L274.504 398.826L278.571 389.471L280.579 390.35L276.52 399.683L269.015 418.481Z" fill="#EFDAB6"/>
<path d="M274.716 416.149L272.855 414.998L278.725 405.49L287.848 397.234L289.321 398.862L280.425 406.904L274.716 416.149Z" fill="#EFDAB6"/>
<path d="M211.651 426.707L205.495 414.522L190.802 402.014L192.224 400.343L207.246 413.136L213.607 425.717L211.651 426.707Z" fill="#EFDAB6"/>
<path d="M195.383 417.066L194.221 418.924L207.36 427.15L208.522 425.292L195.383 417.066Z" fill="#EFDAB6"/>
<path d="M243.63 303.077C243.63 303.077 259.078 299.5 285.057 300.907C311.043 302.307 346.965 302.711 357.687 303.312C368.408 303.913 414.524 304.991 423.098 306.061C423.098 306.061 479.401 318.554 477.789 399.742C476.176 480.93 439.719 494.42 427.385 496.531C427.385 496.531 394.584 498.181 387.659 496.531C380.734 494.882 350.131 501.128 322.291 499.171C294.452 497.213 255.268 499.552 239.277 496.531C235.159 495.754 243.63 303.077 243.63 303.077Z" fill="#E5CE9E"/>
<path d="M454.822 445.431C454.324 442.212 459.608 412.168 454.822 420.753C450.037 429.338 431.724 449.008 428.008 449.008C424.293 449.008 419.566 438.635 413.777 438.635C407.988 438.635 404.551 455.445 401.187 458.664C397.823 461.882 373.091 464.742 375.238 461.171C377.385 457.594 388.824 421.472 386.318 425.768C383.819 430.057 360.581 462.249 357.98 462.96C355.386 463.679 335.556 465.108 339.132 454.375C342.708 443.649 343.778 426.479 339.132 437.564C334.486 448.649 319.829 459.734 316.612 459.382C313.395 459.023 290.157 459.382 290.516 451.516C290.876 443.649 284.397 406.354 284.397 406.354L239.835 401.604C238.274 449.17 237.248 496.157 239.278 496.545C255.268 499.573 294.452 497.235 322.292 499.185C350.131 501.142 380.734 494.896 387.659 496.545C394.584 498.195 427.385 496.545 427.385 496.545C438.759 494.603 470.637 482.982 476.8 417.549C472.916 434.705 455.321 448.649 454.822 445.431Z" fill="#D8BE8F"/>
<path d="M239.284 496.539C239.284 496.539 199.719 490.711 195.857 410.578C191.996 330.446 240.728 300.827 243.623 303.085C246.517 305.343 286.354 325.622 284.529 401.89C282.711 478.152 261.482 494.156 239.284 496.539Z" fill="#CCAA75"/>
<path d="M401.194 300.233L402.506 298.796L408.911 304.793L418.532 306.127V308.693L407.921 306.875L401.194 300.233Z" fill="#E5CE9E"/>
<path d="M409.76 295.533L411.651 294.419L417.806 308.649L416.128 309.529L409.76 295.533Z" fill="#E5CE9E"/>
<path d="M186.36 378.914L187.892 378.283L190.493 385.167L197.265 389.64L196.327 391.612L188.969 386.414L186.36 378.914Z" fill="#CCAA75"/>
<path d="M187.145 395.681L186.368 393.98L198.972 390.058L199.573 391.561L187.145 395.681Z" fill="#CCAA75"/>
<path d="M192.04 378.078L193.645 377.125L198.892 389.244L197.463 389.999L192.04 378.078Z" fill="#CCAA75"/>
<path d="M445.376 296.038L443.361 295.21L439.946 304.264L431.042 310.137L432.274 312.732L441.939 305.892L445.376 296.038Z" fill="#E5CE9E"/>
<path d="M444.335 318.078L445.361 315.841L428.8 310.688L428.008 312.66L444.335 318.078Z" fill="#E5CE9E"/>
<path d="M437.908 294.939L435.797 293.686L428.909 309.617L430.785 310.606L437.908 294.939Z" fill="#E5CE9E"/>
<path d="M472.183 486.318L470.168 487.139L466.753 478.092L457.856 472.219L459.088 469.624L468.754 476.464L472.183 486.318Z" fill="#D8BE8F"/>
<path d="M471.15 464.28L472.168 466.516L455.606 471.67L454.822 469.698L471.15 464.28Z" fill="#D8BE8F"/>
<path d="M464.723 487.411L462.605 488.664L455.717 472.741L457.6 471.751L464.723 487.411Z" fill="#D8BE8F"/>
<path d="M207.811 494.53L209.533 495.234L212.442 487.507L220.049 482.492L218.994 480.271L210.742 486.114L207.811 494.53Z" fill="#CCAA75"/>
<path d="M208.69 475.71L207.818 477.616L221.962 482.022L222.636 480.336L208.69 475.71Z" fill="#CCAA75"/>
<path d="M214.178 495.46L215.989 496.531L221.866 482.931L220.261 482.088L214.178 495.46Z" fill="#CCAA75"/>
<path d="M229.78 298.752L230.901 297.527L235.774 302.63L243.389 303.766V305.958L234.932 304.404L229.78 298.752Z" fill="#CCAA75"/>
<path d="M238.508 297.608L240.12 296.655L245.359 308.774L243.93 309.529L238.508 297.608Z" fill="#CCAA75"/>
<path d="M209.912 322.645L211.517 321.691L216.764 333.81L215.335 334.565L209.912 322.645Z" fill="#CCAA75"/>
<path d="M196.744 329.082L206.264 326.34L216.047 332.418L214.86 334.566L204.607 329.558L194.597 332.418L196.744 329.082Z" fill="#CCAA75"/>
<path d="M232.257 490.49C232.257 490.49 215.512 469.39 212.625 455.798C209.737 442.205 203.303 399.294 205.443 389.28C207.59 379.265 231.539 310.599 241.725 323.832C251.911 337.065 269.433 357.806 269.785 389.28C270.144 420.753 267.286 452.938 262.992 462.235C258.705 471.531 242.854 478.327 242.854 478.327C242.854 478.327 225.097 469.031 225.097 429.331C225.097 389.632 238.383 359.851 239.424 361.332C240.465 362.813 254.769 383.195 252.622 408.591C250.475 433.979 247.617 450.299 241.718 454.009C235.818 457.718 236.148 441.604 236.148 441.604L239.424 447.814C239.424 447.814 248.452 429.69 248.452 412.77C248.452 395.841 240.941 368.869 239.424 376.413C237.907 383.957 217.945 452.828 241.542 473.334C241.542 473.334 257.51 459.984 259.181 452.352C260.852 444.72 265.615 387.264 263.944 381.303C262.273 375.343 239.395 321.222 237.607 327.417C235.818 333.612 209.965 384.162 209.188 394.412C208.411 404.661 218.634 469.625 234.492 485.424C234.492 485.424 248.452 487.396 252.739 484.295C252.747 484.295 249.889 491.208 232.257 490.49Z" fill="#C19963"/>
<path d="M474.959 409.133L496.211 390.592V393.576L474.959 411.332V409.133Z" fill="#E5CE9E"/>
<path d="M472.028 406.113H494.746V410.028L472.028 408.144V406.113Z" fill="#E5CE9E"/>
<path d="M300.306 314.066L297.906 314.762L305.411 340.669L307.811 339.973L300.306 314.066Z" fill="#EFDAB6"/>
<path d="M312.273 337.931H309.342V326.105L314.135 313.928L316.656 314.837L312.273 326.574V337.931Z" fill="#EFDAB6"/>
<path d="M361.746 331.804L360.143 333.723L384.097 353.752L385.699 351.833L361.746 331.804Z" fill="#EFDAB6"/>
<path d="M381.392 326.917L379.035 327.746L385.468 346.061L387.825 345.232L381.392 326.917Z" fill="#EFDAB6"/>
<path d="M434.522 390.571L432.294 389.427L437.014 380.285L440.143 363.657L442.605 364.126L439.403 381.113L434.522 390.571Z" fill="#EFDAB6"/>
<path d="M462.714 366.807L440.591 383.931L442.12 385.908L464.243 368.785L462.714 366.807Z" fill="#EFDAB6"/>
<path d="M343.052 390.716H340.12V381.054L332.484 368.539L334.807 367.227L343.052 380.342V390.716Z" fill="#EFDAB6"/>
<path d="M352.272 370.173L346.198 384.438L348.497 385.418L354.571 371.153L352.272 370.173Z" fill="#EFDAB6"/>
<path d="M391.418 406.912L389.095 405.981L397.691 384.449L402.337 373.76L404.631 374.764L399.992 385.431L391.418 406.912Z" fill="#EFDAB6"/>
<path d="M397.932 404.244L395.807 402.932L402.512 392.059L412.94 382.631L414.619 384.493L404.454 393.679L397.932 404.244Z" fill="#EFDAB6"/>
<path d="M325.867 416.311L318.832 402.382L302.043 388.093L303.662 386.187L320.84 400.805L328.102 415.182L325.867 416.311Z" fill="#EFDAB6"/>
<path d="M307.28 405.274L305.955 407.394L320.969 416.794L322.295 414.675L307.28 405.274Z" fill="#EFDAB6"/>
<path d="M460.985 316.735C460.985 316.735 475.355 313.407 499.538 314.712C523.714 316.017 557.146 316.39 567.127 316.948C577.108 317.512 620.014 318.509 627.995 319.506C627.995 319.506 680.384 331.127 678.882 406.677C677.387 482.227 643.457 494.778 631.981 496.736C631.981 496.736 601.459 498.268 595.018 496.736C588.576 495.204 560.099 501.01 534.194 499.192C508.288 497.374 471.83 499.551 456.947 496.736C453.107 496.017 460.985 316.735 460.985 316.735Z" fill="#E5CE9E"/>
<path d="M657.506 449.192C657.044 446.201 661.961 418.246 657.506 426.23C653.05 434.214 636.012 452.521 632.561 452.521C629.109 452.521 624.705 442.873 619.318 442.873C613.932 442.873 610.737 458.511 607.601 461.509C604.472 464.508 581.461 467.169 583.454 463.84C585.447 460.512 596.095 426.905 593.765 430.893C591.435 434.889 569.816 464.838 567.398 465.505C564.98 466.172 546.535 467.499 549.854 457.521C553.181 447.535 554.178 431.568 549.854 441.883C545.531 452.198 531.893 462.514 528.896 462.184C525.906 461.854 504.28 462.184 504.617 454.86C504.947 447.535 498.923 412.836 498.923 412.836L457.46 408.415C456.009 452.675 455.049 496.399 456.94 496.759C471.824 499.574 508.281 497.396 534.187 499.215C560.092 501.033 588.569 495.219 595.011 496.759C601.452 498.291 631.974 496.759 631.974 496.759C642.556 494.955 672.221 484.141 677.959 423.254C674.346 439.214 657.967 452.184 657.506 449.192Z" fill="#D8BE8F"/>
<path d="M456.947 496.744C456.947 496.744 420.13 491.319 416.539 416.759C412.948 342.198 458.295 314.632 460.985 316.736C463.681 318.84 500.748 337.704 499.047 408.672C497.355 479.64 477.598 494.53 456.947 496.744Z" fill="#CCAA75"/>
<path d="M607.6 314.082L608.824 312.748L614.408 318.327L622.99 319.566V321.956L613.492 320.263L607.6 314.082Z" fill="#E5CE9E"/>
<path d="M615.574 309.713L617.333 308.672L623.056 321.912L621.495 322.733L615.574 309.713Z" fill="#E5CE9E"/>
<path d="M407.694 387.294L409.123 386.707L411.541 393.115L417.844 397.279L416.972 399.119L410.127 394.273L407.694 387.294Z" fill="#CCAA75"/>
<path d="M408.427 402.903L407.709 401.319L419.434 397.668L419.991 399.061L408.427 402.903Z" fill="#CCAA75"/>
<path d="M412.978 386.517L414.48 385.63L419.353 396.913L418.027 397.609L412.978 386.517Z" fill="#CCAA75"/>
<path d="M648.713 310.182L646.837 309.412L643.663 317.836L635.375 323.298L636.526 325.717L645.517 319.346L648.713 310.182Z" fill="#E5CE9E"/>
<path d="M647.752 330.688L648.697 328.606L633.286 323.812L632.553 325.644L647.752 330.688Z" fill="#E5CE9E"/>
<path d="M641.773 309.163L639.801 307.997L633.389 322.814L635.14 323.738L641.773 309.163Z" fill="#E5CE9E"/>
<path d="M673.658 487.235L671.782 488.005L668.608 479.581L660.328 474.119L661.471 471.707L670.47 478.071L673.658 487.235Z" fill="#D8BE8F"/>
<path d="M672.697 466.729L673.65 468.812L658.231 473.606L657.506 471.774L672.697 466.729Z" fill="#D8BE8F"/>
<path d="M666.718 488.255L664.747 489.42L658.342 474.603L660.086 473.68L666.718 488.255Z" fill="#D8BE8F"/>
<path d="M427.656 494.875L429.254 495.535L431.965 488.343L439.044 483.672L438.062 481.612L430.382 487.045L427.656 494.875Z" fill="#CCAA75"/>
<path d="M428.477 477.367L427.664 479.141L440.825 483.24L441.448 481.671L428.477 477.367Z" fill="#CCAA75"/>
<path d="M433.585 495.748L435.263 496.745L440.737 484.091L439.242 483.299L433.585 495.748Z" fill="#CCAA75"/>
<path d="M448.102 312.704L449.143 311.561L454.177 316.319L461.769 317.374V319.405L453.4 317.968L448.102 312.704Z" fill="#CCAA75"/>
<path d="M456.222 311.641L457.717 310.754L462.597 322.037L461.271 322.733L456.222 311.641Z" fill="#CCAA75"/>
<path d="M429.613 334.941L431.108 334.054L435.988 345.329L434.654 346.033L429.613 334.941Z" fill="#CCAA75"/>
<path d="M417.36 340.93L426.22 338.379L435.322 344.031L434.215 346.033L424.681 341.37L415.367 344.031L417.36 340.93Z" fill="#CCAA75"/>
<path d="M460.01 491.121C460.01 491.121 475.59 471.488 478.28 458.841C480.969 446.194 486.956 406.26 484.963 396.942C482.97 387.623 460.677 323.73 451.202 336.047C441.719 348.356 425.421 367.66 425.092 396.942C424.762 426.223 427.422 456.18 431.408 464.831C435.402 473.482 450.147 479.809 450.147 479.809C450.147 479.809 466.664 471.158 466.664 434.215C466.664 397.279 454.302 369.566 453.334 370.944C452.367 372.323 439.059 391.289 441.052 414.918C443.046 438.547 445.706 453.731 451.195 457.184C456.683 460.63 456.376 445.637 456.376 445.637L453.327 451.414C453.327 451.414 444.929 434.552 444.929 418.804C444.929 403.056 451.913 377.953 453.327 384.969C454.741 391.986 473.311 456.077 451.356 475.153C451.356 475.153 436.502 462.726 434.948 455.63C433.394 448.533 428.961 395.065 430.514 389.515C432.068 383.972 453.356 333.606 455.02 339.375C456.683 345.145 480.742 392.176 481.46 401.714C482.178 411.253 472.674 471.7 457.915 486.407C457.915 486.407 444.929 488.24 440.935 485.359C440.935 485.351 443.603 491.788 460.01 491.121Z" fill="#C19963"/>
<path d="M675.02 415.417L697.005 398.166V400.937L675.02 417.47V415.417Z" fill="#E5CE9E"/>
<path d="M673.554 412.712H694.073V416.246L673.554 414.501V412.712Z" fill="#E5CE9E"/>
<path d="M513.745 326.949L511.507 327.598L518.492 351.709L520.731 351.06L513.745 326.949Z" fill="#EFDAB6"/>
<path d="M524.791 348.928H522.593V338.158L526.829 326.823L529.013 327.666L524.791 338.59V348.928Z" fill="#EFDAB6"/>
<path d="M570.904 343.473L569.41 345.262L591.699 363.899L593.194 362.11L570.904 343.473Z" fill="#EFDAB6"/>
<path d="M589.166 338.92L586.967 339.692L592.953 356.735L595.151 355.962L589.166 338.92Z" fill="#EFDAB6"/>
<path d="M638.613 398.144L636.547 397.073L640.929 388.576L643.846 373.1L646.14 373.532L643.157 389.339L638.613 398.144Z" fill="#EFDAB6"/>
<path d="M664.877 376.116L644.291 392.041L645.717 393.885L666.303 377.96L664.877 376.116Z" fill="#EFDAB6"/>
<path d="M553.371 398.048H550.44V389.287L543.5 377.645L545.684 376.428L553.371 388.627V398.048Z" fill="#EFDAB6"/>
<path d="M562.074 379.202L556.416 392.473L558.56 393.387L564.217 380.116L562.074 379.202Z" fill="#EFDAB6"/>
<path d="M598.507 413.348L596.345 412.483L604.34 392.446L608.664 382.505L610.803 383.429L606.487 393.363L598.507 413.348Z" fill="#EFDAB6"/>
<path d="M604.574 410.87L602.588 409.646L608.831 399.529L618.534 390.753L620.095 392.483L610.634 401.039L604.574 410.87Z" fill="#EFDAB6"/>
<path d="M537.514 422.095L530.963 409.133L515.346 395.834L516.848 394.06L532.831 407.667L539.588 421.046L537.514 422.095Z" fill="#EFDAB6"/>
<path d="M520.208 411.817L518.971 413.793L532.943 422.54L534.179 420.564L520.208 411.817Z" fill="#EFDAB6"/>
<path d="M363.029 190.84C363.029 190.84 372.856 187.819 387.161 190.745L387.879 198.633H361.666L363.029 190.84Z" fill="#BA2F2F"/>
<path d="M406.163 152.246C406.163 141.968 392.349 133.632 375.304 133.632C358.259 133.632 344.445 141.968 344.445 152.246C344.445 162.525 358.259 170.861 375.304 170.861C392.349 170.861 406.163 162.532 406.163 152.246Z" fill="#EAB386"/>
<path d="M365.294 175.172C365.294 175.172 365.909 189.739 365.294 192.107C364.678 194.476 358.889 198.346 352.968 201.125C352.968 201.125 359.856 222.665 374.755 222.357C389.653 222.049 394.174 204.762 396.541 201.367C396.541 201.367 385.175 197.371 384.904 192.533C384.633 187.694 384.904 175.172 384.904 175.172H365.294Z" fill="#EA997D"/>
<path d="M374.959 188.977C379.671 188.977 382.947 185.802 384.786 183.266C384.815 178.977 384.896 175.172 384.896 175.172H365.286C365.286 175.172 365.447 178.97 365.52 183.068C367.111 185.634 370.13 188.977 374.959 188.977Z" fill="#D87E66"/>
<path d="M362.01 160.979C362.01 160.979 361.197 158.597 358.002 158.875C354.917 159.146 355.964 167.079 358.683 168.384C361.402 169.689 362.296 165.745 362.296 165.745L362.01 160.979Z" fill="#EA997D"/>
<path d="M389.038 160.979C389.038 160.979 389.851 158.597 393.046 158.875C396.131 159.146 395.083 167.079 392.372 168.384C389.653 169.689 388.759 165.745 388.759 165.745L389.038 160.979Z" fill="#EA997D"/>
<path d="M391.668 160.355C390.305 177.32 385.556 185.472 375.524 185.472C365.491 185.472 360.677 178.742 359.38 160.355C358.42 146.777 365.535 138.383 375.524 138.383C385.519 138.383 392.804 146.264 391.668 160.355Z" fill="#EA997D"/>
<path d="M367.156 163.091C367.156 163.736 366.701 164.256 366.144 164.256C365.587 164.256 365.133 163.736 365.133 163.091C365.133 162.445 365.587 161.925 366.144 161.925C366.701 161.925 367.156 162.445 367.156 163.091Z" fill="#23242B"/>
<path d="M385.535 163.091C385.535 163.736 385.08 164.256 384.524 164.256C383.967 164.256 383.512 163.736 383.512 163.091C383.512 162.445 383.967 161.925 384.524 161.925C385.08 161.925 385.535 162.445 385.535 163.091Z" fill="#23242B"/>
<path d="M362.678 159.395C362.531 159.395 362.392 159.344 362.275 159.241C362.026 159.021 362.011 158.64 362.231 158.391C363.169 157.343 365.492 155.143 368.841 157.35C369.119 157.533 369.259 157.863 369.105 158.164C368.951 158.457 368.592 158.582 368.291 158.428C365.258 156.881 363.147 159.175 363.125 159.197C363.008 159.329 362.847 159.395 362.678 159.395Z" fill="#30323D"/>
<path d="M388.737 159.395C388.884 159.395 389.023 159.344 389.14 159.241C389.389 159.021 389.404 158.64 389.184 158.391C388.246 157.343 385.923 155.143 382.574 157.35C382.296 157.533 382.164 157.863 382.31 158.164C382.464 158.457 382.823 158.582 383.124 158.428C386.158 156.881 388.268 159.175 388.29 159.197C388.407 159.329 388.576 159.395 388.737 159.395Z" fill="#30323D"/>
<path d="M375.283 172.885C374.432 172.856 373.766 172.629 373.45 172.005C372.469 170.055 374.33 166.91 374.506 166.522C374.63 166.25 374.806 166.096 375.077 166.214C375.341 166.331 375.246 166.69 375.121 166.954C374.55 168.222 374.198 170.568 374.726 171.463C374.813 171.61 374.967 171.785 375.378 171.822C375.671 171.844 375.876 172.101 375.861 172.394C375.832 172.907 375.297 172.885 375.283 172.885Z" fill="#D87E66"/>
<path d="M375.312 177.702C372.615 177.702 370.775 176.404 370.666 176.323C370.431 176.155 370.38 175.832 370.548 175.598C370.717 175.363 371.039 175.312 371.274 175.48C371.435 175.598 375.019 178.09 379.489 175.451C379.738 175.304 380.053 175.385 380.2 175.634C380.346 175.884 380.266 176.199 380.016 176.345C378.302 177.364 376.689 177.702 375.312 177.702Z" fill="#CE6565"/>
<path d="M358.375 158.853C358.375 158.853 351.839 134.256 368.518 136.345C368.518 136.345 374.109 129.696 383.511 134.688C394.921 140.751 392.994 150.355 392.473 158.853L391.616 160.942C391.616 160.942 391.257 158.596 390.744 157.899C390.224 157.196 380.272 152.921 376.461 146.462C376.461 146.462 378.103 151.191 381.914 154.168C381.914 154.168 378.513 153.926 375.531 150.847C375.531 150.847 377.539 153.435 378.235 153.911C378.235 153.911 372.35 153.134 367.587 147.372C367.587 147.372 362.435 154.901 360.185 157.584C360.185 157.584 359.343 160.106 359.409 160.942C359.423 160.949 358.727 159.124 358.375 158.853Z" fill="#30323D"/>
<path d="M357.488 143.948C357.488 143.948 356.25 126.902 374.504 126.902C392.759 126.902 391.784 144.549 391.784 144.549L357.488 143.948Z" fill="#EAB386"/>
<path d="M406.163 152.246C406.163 141.968 392.349 133.632 375.304 133.632C358.259 133.632 344.445 141.968 344.445 152.246C344.445 156.931 347.325 161.213 352.059 164.482C351.993 163.925 351.956 163.353 351.956 162.782C351.956 152.503 362.597 144.167 375.729 144.167C388.854 144.167 399.502 152.503 399.502 162.782C399.502 163.133 399.487 163.478 399.465 163.823C403.65 160.648 406.163 156.63 406.163 152.246Z" fill="#EAB386"/>
<path d="M375.304 135.318C391.895 135.318 405.416 143.214 406.134 153.111C406.156 152.825 406.17 152.54 406.17 152.246C406.17 141.968 392.357 133.632 375.311 133.632C358.266 133.632 344.452 141.968 344.452 152.246C344.452 152.54 344.467 152.833 344.489 153.126C345.178 143.221 358.713 135.318 375.304 135.318Z" fill="#F9D7C0"/>
<path d="M374.321 219.541C372.335 214.314 370.415 206.44 370.415 206.44C363.534 195.714 363.197 191.015 363.182 191.029C361.504 192.474 356.975 196.645 356.243 197.437V198.632C350.38 201.968 341.191 206.242 337.013 208.801C337.013 208.801 344.496 269.087 344.62 295.348C344.62 295.348 375.824 297.987 404.682 295.348C404.682 295.348 412.018 211.359 411.805 208.801C411.805 208.801 403.011 203.859 393.558 198.969L393.529 198.002C393.052 197.334 387.791 191.836 387.168 191.029C387.168 191.029 384.588 199.416 377.839 206.616C376.776 207.752 374.321 219.541 374.321 219.541Z" fill="#D34242"/>
<path d="M360.764 215.413L356.22 199.841C356.162 199.651 356.272 199.453 356.462 199.402C356.653 199.343 356.851 199.453 356.902 199.643L361.123 214.108L369.455 206.454C369.602 206.322 369.829 206.33 369.961 206.476C370.093 206.623 370.085 206.85 369.939 206.982L360.764 215.413Z" fill="#BA2F2F"/>
<path d="M387.087 215.37L378.22 207.152C378.073 207.02 378.066 206.792 378.198 206.646C378.33 206.499 378.557 206.492 378.703 206.624L386.816 214.138L392.788 199.593C392.861 199.41 393.074 199.322 393.257 199.395C393.44 199.468 393.528 199.681 393.455 199.864L387.087 215.37Z" fill="#BA2F2F"/>
<path d="M342.393 295.357C342.393 295.357 338.897 289.682 341.909 283.421L341.235 264.469C341.235 264.469 347.361 247.307 348.556 234.425C348.556 234.425 377.869 232.519 400.029 234.425C400.029 234.425 399.436 255.049 408.728 264.469L407.057 283.898C407.057 283.898 411.784 290.665 406.778 295.357C406.786 295.357 379.613 305.863 342.393 295.357Z" fill="#585872"/>
<path d="M354.668 247.181C354.668 247.181 377.158 246.228 393.361 247.181C393.361 247.181 393.83 270.312 374.593 270.312C353.437 270.312 354.668 247.181 354.668 247.181Z" fill="#67677F"/>
<path d="M343.075 265.898C343.016 265.898 342.958 265.884 342.899 265.854C342.723 265.759 342.664 265.539 342.76 265.371C342.848 265.209 349.406 249.432 350.344 236.668L350.366 236.353L350.682 236.338C350.945 236.323 377.466 234.938 397.839 236.353L398.139 236.375L398.168 236.675C398.19 236.881 397.86 257.24 406.706 265.283C406.852 265.415 406.86 265.642 406.728 265.788C406.596 265.935 406.369 265.942 406.222 265.81C397.655 258.032 397.787 239.718 397.487 237.049C378.404 235.752 354.067 236.888 351.033 237.042C349.971 249.909 343.478 265.568 343.39 265.722C343.317 265.832 343.199 265.898 343.075 265.898Z" fill="#41415B"/>
<path d="M374.08 268.648C360.354 268.648 356.99 256.492 356.214 249.242L356.17 248.86L356.551 248.846C356.653 248.838 366.891 248.369 377.048 248.369C383.02 248.369 387.798 248.53 391.25 248.846L391.58 248.875L391.572 249.212C391.565 249.403 390.957 268.157 374.776 268.633C374.542 268.648 374.307 268.648 374.08 268.648ZM356.961 249.55C357.804 256.712 361.255 268.325 374.754 267.922C381.247 267.731 385.922 264.535 388.663 258.435C390.407 254.557 390.766 250.671 390.84 249.528C387.439 249.234 382.801 249.08 377.041 249.08C368.012 249.088 358.91 249.462 356.961 249.55Z" fill="#41415B"/>
<path d="M400.03 234.425C400.03 234.425 402.499 211.712 403.664 203.758L395.655 199.557C395.655 199.557 393.603 211.932 390.503 233.846C390.503 233.846 389.799 238.897 394.387 239.579C398.388 240.18 399.612 236.962 400.03 234.425Z" fill="#67677F"/>
<path d="M392.225 233.179C392.203 233.179 392.181 233.179 392.159 233.172C391.961 233.135 391.837 232.952 391.873 232.754C393.552 223.304 396.16 201.258 396.19 201.038C396.212 200.84 396.388 200.701 396.585 200.723C396.783 200.745 396.923 200.921 396.901 201.119C396.871 201.339 394.255 223.414 392.577 232.879C392.548 233.055 392.394 233.179 392.225 233.179Z" fill="#41415B"/>
<path d="M398.483 233.179C398.468 233.179 398.461 233.179 398.446 233.179C398.248 233.157 398.109 232.981 398.131 232.783C399.458 220.312 401.685 204.234 401.707 204.073C401.737 203.875 401.913 203.743 402.11 203.765C402.308 203.794 402.44 203.97 402.418 204.168C402.396 204.33 400.168 220.4 398.842 232.856C398.813 233.039 398.659 233.179 398.483 233.179Z" fill="#41415B"/>
<path d="M390.803 224.198L391.111 220.994C391.206 220.012 391.939 219.278 392.752 219.352L401.267 220.166C402.074 220.246 402.66 221.104 402.565 222.086L402.257 225.29C402.162 226.273 401.429 227.006 400.615 226.932L392.1 226.119C391.286 226.045 390.707 225.18 390.803 224.198ZM392.613 220.781C392.452 220.767 392.305 220.913 392.283 221.111L391.975 224.315C391.953 224.513 392.071 224.682 392.232 224.696L400.747 225.51C400.908 225.525 401.055 225.378 401.077 225.18L401.385 221.976C401.407 221.778 401.289 221.61 401.128 221.595L392.613 220.781Z" fill="#C9C9D6"/>
<path d="M397.141 235.716C397.141 234.455 396.123 233.436 394.862 233.436C393.602 233.436 392.583 234.455 392.583 235.716C392.583 236.977 393.602 237.996 394.862 237.996C396.115 237.996 397.141 236.977 397.141 235.716Z" fill="#C9C9D6"/>
<path d="M348.556 234.425L345.573 203.494C345.573 203.494 350.776 200.671 353.202 199.74C353.202 199.74 356.074 213.34 357.738 233.956C357.738 233.956 358.024 238.941 354.059 239.433C350.718 239.85 348.849 237.614 348.556 234.425Z" fill="#67677F"/>
<path d="M350.131 233.941C349.948 233.941 349.794 233.802 349.779 233.619C348.629 221.734 346.54 203.633 346.518 203.45C346.496 203.252 346.635 203.076 346.833 203.054C347.031 203.032 347.207 203.171 347.229 203.369C347.251 203.553 349.347 221.661 350.49 233.553C350.512 233.751 350.365 233.927 350.168 233.941C350.153 233.934 350.138 233.941 350.131 233.941Z" fill="#41415B"/>
<path d="M356.118 233.179C355.935 233.179 355.774 233.04 355.759 232.849C355.144 225.085 351.677 201.903 351.641 201.669C351.611 201.471 351.743 201.287 351.941 201.258C352.139 201.229 352.315 201.361 352.344 201.559C352.381 201.793 355.847 224.997 356.47 232.783C356.485 232.981 356.338 233.15 356.14 233.164C356.14 233.179 356.126 233.179 356.118 233.179Z" fill="#41415B"/>
<path d="M356.58 226.119L348.064 226.932C347.258 227.013 346.518 226.273 346.423 225.29L346.115 222.086C346.02 221.104 346.606 220.246 347.412 220.165L355.927 219.352C356.733 219.271 357.474 220.012 357.569 220.994L357.877 224.198C357.965 225.18 357.386 226.045 356.58 226.119ZM347.551 221.595C347.39 221.61 347.273 221.786 347.295 221.976L347.603 225.18C347.625 225.378 347.771 225.525 347.932 225.51L356.448 224.696C356.609 224.682 356.726 224.506 356.704 224.315L356.396 221.111C356.382 220.913 356.228 220.767 356.067 220.781L347.551 221.595Z" fill="#C9C9D6"/>
<path d="M355.671 235.716C355.671 234.455 354.652 233.436 353.392 233.436C352.131 233.436 351.113 234.455 351.113 235.716C351.113 236.977 352.131 237.996 353.392 237.996C354.652 237.996 355.671 236.977 355.671 235.716Z" fill="#C9C9D6"/>
<path d="M391.192 471.677C390.144 459.895 375.928 356.398 374.704 341.684C374.704 341.684 370.373 422.718 368.409 471.677H352.844C350.938 429.639 342.936 329.858 342.386 295.356H406.779C406.779 295.356 406.45 426.083 406.604 471.677H391.192Z" fill="#585872"/>
<path d="M374.704 341.676C374.704 341.676 369.985 338.106 368.468 337.124C366.951 336.141 374.301 351.354 374.301 351.354L374.704 341.676Z" fill="#41415B"/>
<path d="M369.273 496.538C369.273 496.538 369.903 496.773 369.918 497.022C369.932 497.279 369.757 502.608 369.683 503.29C369.683 503.29 364.466 505.585 362.04 506.604C362.04 506.604 360.362 505.438 360.061 506.135C360.061 506.135 359.49 507.506 358.068 508.202C358.068 508.202 349.054 510.908 343.397 511.003C337.923 511.091 335.849 508.459 335.094 507.11C334.721 506.443 334.12 503.737 334.647 502.491L369.273 496.538Z" fill="#C67F44"/>
<path d="M351.078 465.724C351.078 465.724 361.213 465.365 369.97 465.724L368.365 487.99C368.365 487.99 369.208 490.482 369.274 496.538C369.274 496.538 363.69 500.71 347.509 505.732C347.509 505.732 340.547 508.151 336.085 505.373C336.085 505.373 334.099 504.024 334.619 502.117C335.139 500.211 338.078 498.591 339.881 497.301C341.683 496.003 350.045 491.223 352.426 486.56L351.078 465.724Z" fill="#D89252"/>
<path d="M409.645 511.464C409.351 513.026 408.897 514.617 408.069 515.232C406.677 516.266 403.87 516.266 401.481 516.266C398.652 516.266 396.073 516.163 394.644 515.078C393.655 514.323 393.427 513.011 393.164 511.303C394.644 512.263 397.326 512.527 401.503 512.6C405.49 512.659 408.326 512.073 409.645 511.464Z" fill="#C67F44"/>
<path d="M389.367 465.562C389.367 465.562 399.737 465.049 407.688 465.562L406.838 487.923C406.838 487.923 408.384 490.504 409.659 501.266C410.641 509.58 409.542 512.014 409.542 512.014C409.542 512.014 400.843 515.196 393.163 511.303C393.163 511.303 392.518 503.773 393.596 489.287L389.367 465.562Z" fill="#D89252"/>
<path d="M416.269 295.415C415.807 292.82 414.056 291.625 414.144 291.691C414.056 291.632 404.873 286.441 404.771 286.398C403.224 285.716 398.725 286.112 397.34 286.412C396.658 286.559 393.522 288.45 392.811 288.92C392.459 289.147 390.261 291.559 390.18 291.647C389.55 292.321 390.4 293.384 391.587 292.952C392.584 292.593 393.852 291.434 394.167 291.229C394.57 290.965 396.754 289.594 397.567 289.455C398.622 289.271 399.883 289.286 401.195 289.22C399.817 289.535 398.337 290.115 397.186 290.664C395.808 291.324 394.812 291.999 393.859 292.695C392.379 293.788 391.038 295.334 390.935 295.474C390.034 296.698 392.203 297.211 392.994 296.72C393.405 296.464 394.093 295.84 394.951 295.21C394.995 295.181 397.061 293.714 398.373 293.326C399.443 293.01 401.195 292.607 402.609 292.307C401.319 292.812 399.692 293.179 398.586 293.817C397.135 294.653 396.739 294.829 395.625 295.65C394.159 296.727 393.207 297.864 393.104 297.996C392.071 299.271 394.284 299.961 395.083 299.337C396.563 298.179 396.959 297.835 397.421 297.519C398.395 296.859 399.612 296.288 400.359 295.972C401.444 295.518 402.44 295.459 404.053 295.21C403.078 295.826 402.646 296.39 401.883 297.123C400.997 297.974 400.059 299.14 399.465 299.917C398.483 301.207 397.889 302.153 397.816 302.277C397.399 303.054 399.011 303.626 399.714 303.098C400.462 302.541 400.572 302.05 401.063 301.486C402.045 300.371 402.917 299.631 403.452 299.264C404.609 298.48 404.932 298.113 406.126 297.673C406.698 298.758 407.24 299.843 407.651 300.884C409.607 305.789 415.866 300.892 415.866 300.892C417.141 298.722 416.269 295.415 416.269 295.415Z" fill="#EA997D"/>
<path d="M451.869 258.699C455.094 251.493 441.844 237.262 423.458 218.465C417.383 212.248 411.776 208.802 411.776 208.802C411.776 208.802 408.017 217.372 408.017 225.613C408.017 234.755 409.417 239.652 409.417 239.652C409.417 239.652 430.134 255.092 432.134 256.478C432.134 256.478 431.511 258.406 429.789 262.211C432.992 264.557 438.473 268.047 445.398 270.459C447.971 267.094 450.601 261.529 451.869 258.699Z" fill="#D34242"/>
<path d="M429.789 262.212C427.21 267.908 422.168 277.813 413.052 291.794C413.052 291.794 411.82 298.825 415.858 300.907C415.858 300.907 434.67 284.485 445.391 270.46C438.466 268.048 432.992 264.558 429.789 262.212Z" fill="#EA997D"/>
<path d="M441.419 273.502C441.419 273.502 443.984 274.293 444.336 273.773C444.687 273.26 448.732 268.744 448.256 267.417C447.78 266.09 437.894 262.856 431.211 258.421C431.211 258.421 429.994 258.553 429.445 260.474C428.895 262.395 426.755 264.543 427.942 265.723C429.13 266.889 435.593 271.859 441.419 273.502Z" fill="#BA2F2F"/>
<path d="M432.705 256.734C432.581 256.734 432.471 256.676 432.405 256.566C432.317 256.426 432.339 256.243 432.456 256.126C432.529 256.052 434.288 254.293 435.571 253.567C435.739 253.472 435.959 253.53 436.062 253.699C436.157 253.868 436.098 254.088 435.93 254.183C435.336 254.52 434.603 255.129 434.017 255.649C435.241 255.363 437.08 255.041 438.824 255.187C439.022 255.202 439.169 255.378 439.154 255.576C439.14 255.774 438.964 255.921 438.766 255.906C436.01 255.679 432.867 256.712 432.83 256.72C432.786 256.727 432.749 256.734 432.705 256.734Z" fill="#BA2F2F"/>
<path d="M282.535 210.084C282.535 210.084 281.194 202.87 279.436 201.096C276.592 199.006 269.052 197.217 269.052 197.217L268.956 197.144L263.541 194.043C263.541 194.043 261.643 192.804 260.697 194.322C259.686 195.949 261.115 197.063 261.115 197.063L262.918 198.574C262.918 198.574 261.665 198.361 261.144 199.739C260.404 201.734 262.764 202.753 262.764 202.753C262.764 202.753 261.357 202.797 261.02 204.175C260.683 205.553 261.584 206.374 261.584 206.374C261.584 206.374 260.749 206.91 260.697 207.643C260.624 208.816 262.566 210.509 262.566 210.509C262.566 210.509 268.473 214.673 276.651 216.836C276.673 216.829 284.88 218.471 282.535 210.084Z" fill="#EA997D"/>
<path d="M268.972 197.144C268.972 197.144 269.646 197.694 270.1 197.84L272.086 199.901C272.086 199.901 272.885 206.455 275.933 208.471C275.933 208.471 269.924 208.779 267.66 212.775C267.66 212.775 263.666 211.103 262.274 209.747L266.641 210.934C266.641 210.934 267.902 211.389 268.437 209.996C268.972 208.61 267.425 208.192 267.425 208.192L261.607 206.367L266.736 207.393C266.736 207.393 268.378 207.789 268.7 206.184C268.986 204.791 267.484 204.373 267.484 204.373L262.977 202.774L266.956 203.801C266.956 203.801 268.121 204.036 268.605 202.613C269.096 201.162 267.572 200.575 267.572 200.575L263.109 198.603L261.966 197.584C261.966 197.584 263.497 197.98 264.333 196.777C265.168 195.575 263.893 194.233 263.893 194.233L268.972 197.144Z" fill="#D87E66"/>
<path d="M310.185 253.875C310.185 253.875 328.857 248.266 340.553 241.323C340.553 241.323 342.502 235.774 342.261 227.548C342.019 219.322 336.852 208.809 336.852 208.809C336.852 208.809 331.803 211.778 325.816 218.068C319.668 224.52 312.757 229.065 306.638 234.74C300.402 240.524 305.422 249.241 310.185 253.875Z" fill="#D34242"/>
<path d="M340.802 240.847C340.414 234.615 339.359 220.231 337.673 214.894C337.607 214.674 337.373 214.549 337.153 214.623C336.933 214.689 336.809 214.923 336.882 215.143C338.538 220.385 339.601 235.063 339.982 241.126C340.231 241.001 340.509 240.913 340.802 240.847Z" fill="#BA2F2F"/>
<path d="M292.692 245.605C298.818 252.907 305.487 257.614 310.653 253.53C316.89 248.596 313.519 241.206 307.957 232.899C303.794 238.303 296.371 243.633 292.692 245.605Z" fill="#D34242"/>
<path d="M306.557 234.439C295.323 221.184 282.271 208.809 282.271 208.809L275.47 216.492C275.47 216.492 283.788 228.948 293.996 244.886C297.675 242.9 302.394 239.835 306.557 234.439Z" fill="#EA997D"/>
<path d="M288.552 238.258C288.552 238.258 286.632 238.536 287.805 240.318C288.149 240.839 290.729 246.828 292.268 246.821C293.807 246.814 303.604 245.076 308.368 233.507C308.368 233.507 308.815 232.268 307.181 231.073C305.546 229.878 303.722 226.33 302 227.085C300.277 227.833 297.207 236.469 288.552 238.258Z" fill="#BA2F2F"/>
<path d="M313.834 243.977C313.79 244.013 313.739 244.042 313.687 244.057C313.497 244.108 313.299 243.991 313.248 243.801C313.233 243.735 311.474 237.1 308.528 234.094C308.389 233.955 308.389 233.727 308.535 233.588C308.682 233.449 308.902 233.449 309.041 233.595C312.119 236.74 313.87 243.346 313.944 243.625C313.973 243.749 313.929 243.889 313.834 243.977Z" fill="#BA2F2F"/>
<path d="M314.897 238.919C314.765 239.036 314.56 239.044 314.421 238.919C312.435 237.145 310.757 236.47 310.742 236.463C310.559 236.39 310.471 236.184 310.544 236.001C310.617 235.818 310.823 235.73 311.006 235.803C311.079 235.832 312.823 236.536 314.904 238.391C315.051 238.523 315.066 238.75 314.934 238.897C314.912 238.904 314.904 238.912 314.897 238.919Z" fill="#BA2F2F"/>
<path d="M294.151 505.393C294.195 505.987 293.748 506.5 293.161 506.537L288.882 506.845C288.288 506.889 287.775 506.442 287.738 505.855L267 218.713C266.956 218.119 267.403 217.606 267.989 217.562L272.269 217.254C272.862 217.21 273.375 217.657 273.412 218.251L294.151 505.393Z" fill="#C67F44"/>
<path d="M273.999 125.935C278.718 130.201 282.316 141.609 283.87 157.196C285.24 170.927 284.522 182.672 283.408 185.026C281.723 188.582 274.196 189.74 269.931 190.15C271.602 129.153 256.653 127.108 256.653 127.108C268.73 139.116 267.191 181.609 266.751 190.143C263.211 190.062 254.33 189.337 253.377 184.197C253.047 182.401 252.879 178.911 252.857 174.491C252.637 129.153 239.344 128.354 239.344 128.354C248.768 137.87 249.31 160.839 249.64 174.564C249.75 179.131 249.83 182.731 250.211 184.777C251.347 190.928 258.719 192.702 263.71 193.193L265.894 223.442C265.938 224.036 266.473 224.476 267.081 224.432L274.123 223.926C274.739 223.882 275.2 223.369 275.156 222.775L273.002 192.98C277.641 192.357 284.207 190.708 286.288 186.331C287.974 182.782 287.944 169.578 287.05 156.836C285.233 130.627 273.999 125.935 273.999 125.935Z" fill="#41415B"/>
<path d="M268.43 209.99C268.965 208.605 267.418 208.187 267.418 208.187L261.863 206.42L266.729 207.395C266.729 207.395 268.371 207.791 268.693 206.185C268.979 204.792 267.477 204.374 267.477 204.374L263.241 202.872L266.957 203.803C266.957 203.803 268.122 204.037 268.605 202.615C269.096 201.163 267.499 200.584 267.499 200.584L262.853 198.561C262.567 198.539 261.6 198.568 261.167 199.734C260.427 201.728 262.787 202.747 262.787 202.747C262.787 202.747 261.38 202.791 261.043 204.169C260.706 205.547 261.607 206.369 261.607 206.369C261.607 206.369 260.772 206.904 260.72 207.637C260.684 208.223 261.153 208.935 261.629 209.506L266.641 210.929C266.634 210.929 267.895 211.383 268.43 209.99Z" fill="#EA997D"/>
<path d="M264.26 196.793C264.846 195.943 264.377 194.887 264.047 194.33L263.556 194.044C263.556 194.044 261.658 192.805 260.713 194.323C259.701 195.95 261.13 197.064 261.13 197.064L261.665 197.512C262.325 197.614 263.644 197.68 264.26 196.793Z" fill="#EA997D"/>
<path d="M270.093 197.841C270.093 197.841 271.889 199.645 272.079 199.901C272.27 200.151 273.171 203.083 274.556 204.095C275.941 205.099 279.613 205.341 279.437 201.104C279.385 201.052 279.334 201.001 279.283 200.957C277.451 199.476 273.31 195.612 272.306 195.129C269.829 193.941 267.133 191.228 266.598 191.785C266.063 192.343 265.059 192.98 268.943 197.203L269.045 197.247C269.045 197.247 269.771 197.812 270.093 197.841Z" fill="#EA997D"/>
</svg>
